<svg width="560" height="866" viewBox="0 0 560 866" fill="none" xmlns="http://www.w3.org/2000/svg">
<rect x="0.5" y="0.5" width="559" height="865" stroke="black"/>
<rect x="93" y="674" width="37" height="38" rx="12" fill="#EF6984"/>
<rect x="67" y="327" width="78" height="78" rx="12" fill="#EBE9EC"/>
<rect x="67" y="414" width="78" height="78" rx="12" fill="#EBE9EC"/>
<rect x="93" y="674" width="37" height="38" rx="12" fill="#EF6984"/>
<rect x="67" y="327" width="78" height="78" rx="12" fill="#EBE9EC"/>
<rect x="67" y="414" width="78" height="78" rx="12" fill="#EBE9EC"/>
<rect x="135" y="674" width="37" height="38" rx="12" fill="#EF6984"/>
<rect x="93" y="716" width="37" height="38" rx="12" fill="#EF6984"/>
<rect x="93" y="716" width="37" height="38" rx="12" fill="#EF6984"/>
<rect x="135" y="716" width="37" height="38" rx="12" fill="#EF6984"/>
<rect x="154" y="327" width="78" height="78" rx="12" fill="#EBE9EC"/>
<rect x="93" y="632" width="37" height="37" rx="12" fill="#EF6984"/>
<rect x="241" y="327" width="78" height="78" rx="12" fill="#EBE9EC"/>
<rect x="135" y="632" width="37" height="37" rx="12" fill="#EF6984"/>
<rect x="93" y="674" width="37" height="38" rx="12" fill="#EF6984"/>
<rect x="420" y="674" width="37" height="38" rx="12" fill="#93DD62"/>
<rect x="93" y="674" width="37" height="38" rx="12" fill="#EF6984"/>
<rect x="420" y="674" width="37" height="38" rx="12" fill="#93DD62"/>
<rect x="135" y="674" width="37" height="38" rx="12" fill="#EF6984"/>
<rect x="354" y="674" width="37" height="38" rx="12" fill="#5386FE"/>
<rect x="462" y="674" width="37" height="38" rx="12" fill="#93DD62"/>
<rect x="93" y="716" width="37" height="38" rx="12" fill="#EF6984"/>
<rect x="201" y="716" width="37" height="38" rx="12" fill="#FEA853"/>
<rect x="312" y="716" width="37" height="38" rx="12" fill="#5386FE"/>
<rect x="420" y="716" width="37" height="38" rx="12" fill="#93DD62"/>
<rect x="93" y="716" width="37" height="38" rx="12" fill="#EF6984"/>
<rect x="201" y="716" width="37" height="38" rx="12" fill="#FEA853"/>
<rect x="312" y="716" width="37" height="38" rx="12" fill="#5386FE"/>
<rect x="420" y="716" width="37" height="38" rx="12" fill="#93DD62"/>
<rect x="135" y="716" width="37" height="38" rx="12" fill="#EF6984"/>
<rect x="243" y="716" width="37" height="38" rx="12" fill="#FEA853"/>
<rect x="354" y="716" width="37" height="38" rx="12" fill="#5386FE"/>
<rect x="462" y="716" width="37" height="38" rx="12" fill="#93DD62"/>
<rect x="93" y="632" width="37" height="37" rx="12" fill="#EF6984"/>
<rect x="135" y="632" width="37" height="37" rx="12" fill="#EF6984"/>
<rect x="328" y="327" width="78" height="78" rx="12" fill="#EBE9EC"/>
<rect x="154" y="414" width="78" height="78" rx="12" fill="#EBE9EC"/>
<rect x="241" y="414" width="78" height="78" rx="12" fill="#EBE9EC"/>
<rect x="328" y="414" width="78" height="78" rx="12" fill="#EBE9EC"/>
<rect x="415" y="327" width="78" height="78" rx="12" fill="#EBE9EC"/>
<rect x="415" y="414" width="78" height="78" rx="12" fill="#EBE9EC"/>
<path d="M254.48 238C253.813 238 253.48 237.667 253.48 237V200.68H250.12C249.453 200.68 249.12 200.347 249.12 199.68V185.68C249.12 185.013 249.453 184.68 250.12 184.68H269.12C269.787 184.68 270.12 185.013 270.12 185.68V237C270.12 237.667 269.787 238 269.12 238H254.48ZM274.508 238C274.215 238 273.975 237.907 273.788 237.72C273.601 237.533 273.508 237.293 273.508 237V185.72C273.508 185.427 273.601 185.187 273.788 185C273.975 184.813 274.215 184.72 274.508 184.72L307.828 184.6C308.121 184.6 308.361 184.693 308.548 184.88C308.735 185.067 308.828 185.307 308.828 185.6V237C308.828 237.293 308.735 237.533 308.548 237.72C308.361 237.907 308.121 238 307.828 238H274.508ZM289.508 223.32H292.828V199.32H289.508V223.32Z" fill="black"/>
<rect x="459" y="45" width="14" height="48" rx="4" fill="#FC8D4A"/>
<rect x="479" y="45" width="14" height="48" rx="4" fill="#FC8D4A"/>
<rect x="186" y="34" width="187" height="70" rx="20" fill="#6750A4"/>
<path d="M289.4 55H292.64V80.12H299.84V83H282.16V80.12H289.4V59.2L284.36 64.4L282.68 61.88L289.4 55ZM309.384 55H320.664L323.824 59.76V79.68L320.664 83H309.384L306.144 78.2V58.32L309.384 55ZM309.344 59.2V73.36L320.584 61.72V60.2L319.024 57.88H310.584L309.344 59.2ZM309.344 77.8L310.904 80.12H319.384L320.584 78.8V65.84L309.344 77.52V77.8Z" fill="white"/>
<g clip-path="url(#clip0_1_881)">
<rect x="218" y="49" width="40" height="40" rx="20" fill="#6750A4"/>
<path d="M234 75L238 71.95L242 75L240.5 70.05L244.5 67.2H239.6L238 62L236.4 67.2H231.5L235.5 70.05L234 75ZM238 79C236.617 79 235.317 78.7375 234.1 78.2125C232.883 77.6875 231.825 76.975 230.925 76.075C230.025 75.175 229.313 74.1167 228.788 72.9C228.262 71.6833 228 70.3833 228 69C228 67.6167 228.262 66.3167 228.788 65.1C229.313 63.8833 230.025 62.825 230.925 61.925C231.825 61.025 232.883 60.3125 234.1 59.7875C235.317 59.2625 236.617 59 238 59C239.383 59 240.683 59.2625 241.9 59.7875C243.117 60.3125 244.175 61.025 245.075 61.925C245.975 62.825 246.687 63.8833 247.212 65.1C247.737 66.3167 248 67.6167 248 69C248 70.3833 247.737 71.6833 247.212 72.9C246.687 74.1167 245.975 75.175 245.075 76.075C244.175 76.975 243.117 77.6875 241.9 78.2125C240.683 78.7375 239.383 79 238 79Z" fill="white"/>
</g>
<defs>
<clipPath id="clip0_1_881">
<rect x="218" y="49" width="40" height="40" rx="20" fill="white"/>
</clipPath>
</defs>
</svg>
