<svg width="560" height="866" viewBox="0 0 560 866" fill="none" xmlns="http://www.w3.org/2000/svg">
<rect x="93" y="674" width="37" height="38" rx="12" fill="#EF6984"/>
<rect x="67" y="327" width="78" height="78" rx="12" fill="#EBE9EC"/>
<rect x="67" y="414" width="78" height="78" rx="12" fill="#EBE9EC"/>
<rect x="93" y="674" width="37" height="38" rx="12" fill="#EF6984"/>
<rect x="67" y="327" width="78" height="78" rx="12" fill="#EF6984"/>
<rect x="67" y="414" width="78" height="78" rx="12" fill="#EF6984"/>
<rect x="135" y="674" width="37" height="38" rx="12" fill="#EF6984"/>
<rect x="93" y="716" width="37" height="38" rx="12" fill="#EF6984"/>
<rect x="93" y="716" width="37" height="38" rx="12" fill="#EF6984"/>
<rect x="135" y="716" width="37" height="38" rx="12" fill="#EF6984"/>
<rect x="154" y="327" width="78" height="78" rx="12" fill="#EF6984"/>
<rect x="93" y="632" width="37" height="37" rx="12" fill="#EF6984"/>
<rect x="241" y="327" width="78" height="78" rx="12" fill="#EF6984"/>
<rect x="135" y="632" width="37" height="37" rx="12" fill="#EF6984"/>
<rect x="93" y="674" width="37" height="38" rx="12" fill="#EF6984"/>
<rect x="420" y="674" width="37" height="38" rx="12" fill="#93DD62"/>
<rect x="93" y="674" width="37" height="38" rx="12" fill="#EF6984"/>
<rect x="420" y="674" width="37" height="38" rx="12" fill="#93DD62"/>
<rect x="135" y="674" width="37" height="38" rx="12" fill="#EF6984"/>
<rect x="354" y="674" width="37" height="38" rx="12" fill="#5386FE"/>
<rect x="462" y="674" width="37" height="38" rx="12" fill="#93DD62"/>
<rect x="93" y="716" width="37" height="38" rx="12" fill="#EF6984"/>
<rect x="201" y="716" width="37" height="38" rx="12" fill="#FEA853"/>
<rect x="312" y="716" width="37" height="38" rx="12" fill="#5386FE"/>
<rect x="420" y="716" width="37" height="38" rx="12" fill="#93DD62"/>
<rect x="93" y="716" width="37" height="38" rx="12" fill="#EF6984"/>
<rect x="201" y="716" width="37" height="38" rx="12" fill="#FEA853"/>
<rect x="312" y="716" width="37" height="38" rx="12" fill="#5386FE"/>
<rect x="420" y="716" width="37" height="38" rx="12" fill="#93DD62"/>
<rect x="135" y="716" width="37" height="38" rx="12" fill="#EF6984"/>
<rect x="243" y="716" width="37" height="38" rx="12" fill="#FEA853"/>
<rect x="354" y="716" width="37" height="38" rx="12" fill="#5386FE"/>
<rect x="462" y="716" width="37" height="38" rx="12" fill="#93DD62"/>
<rect x="93" y="632" width="37" height="37" rx="12" fill="#EF6984"/>
<rect x="135" y="632" width="37" height="37" rx="12" fill="#EF6984"/>
<rect x="328" y="327" width="78" height="78" rx="12" fill="#93DD62"/>
<rect x="154" y="414" width="78" height="78" rx="12" fill="#EF6984"/>
<rect x="241" y="414" width="78" height="78" rx="12" fill="#EF6984"/>
<rect x="328" y="414" width="78" height="78" rx="12" fill="#93DD62"/>
<rect x="415" y="327" width="78" height="78" rx="12" fill="#93DD62"/>
<rect x="415" y="414" width="78" height="78" rx="12" fill="#93DD62"/>
<path d="M254.48 238C253.813 238 253.48 237.667 253.48 237V200.68H250.12C249.453 200.68 249.12 200.347 249.12 199.68V185.68C249.12 185.013 249.453 184.68 250.12 184.68H269.12C269.787 184.68 270.12 185.013 270.12 185.68V237C270.12 237.667 269.787 238 269.12 238H254.48ZM274.508 238C274.215 238 273.975 237.907 273.788 237.72C273.601 237.533 273.508 237.293 273.508 237V185.72C273.508 185.427 273.601 185.187 273.788 185C273.975 184.813 274.215 184.72 274.508 184.72L307.828 184.6C308.121 184.6 308.361 184.693 308.548 184.88C308.735 185.067 308.828 185.307 308.828 185.6V237C308.828 237.293 308.735 237.533 308.548 237.72C308.361 237.907 308.121 238 307.828 238H274.508ZM289.508 223.32H292.828V199.32H289.508V223.32Z" fill="black"/>
<rect x="458" y="45" width="14" height="48" rx="4" fill="#FC8D4A"/>
<rect x="479" y="45" width="14" height="48" rx="4" fill="#FC8D4A"/>
<path d="M67 54C67 42.9543 75.9543 34 87 34H212C223.046 34 232 42.9543 232 54V84C232 95.0457 223.046 104 212 104H87C75.9543 104 67 95.0457 67 84V54Z" fill="#6750A4"/>
<path d="M158.646 55H161.886V80.12H169.086V83H151.406V80.12H158.646V59.2L153.606 64.4L151.926 61.88L158.646 55ZM178.631 55H189.911L193.071 59.76V79.68L189.911 83H178.631L175.391 78.2V58.32L178.631 55ZM178.591 59.2V73.36L189.831 61.72V60.2L188.271 57.88H179.831L178.591 59.2ZM178.591 77.8L180.151 80.12H188.631L189.831 78.8V65.84L178.591 77.52V77.8Z" fill="white"/>
<g clip-path="url(#clip0_1_880)">
<rect x="89.158" y="49" width="40" height="40" rx="20" fill="#6750A4"/>
<path d="M105.158 75L109.158 71.95L113.158 75L111.658 70.05L115.658 67.2H110.758L109.158 62L107.558 67.2H102.658L106.658 70.05L105.158 75ZM109.158 79C107.775 79 106.475 78.7375 105.258 78.2125C104.041 77.6875 102.983 76.975 102.083 76.075C101.183 75.175 100.471 74.1167 99.9455 72.9C99.4205 71.6833 99.158 70.3833 99.158 69C99.158 67.6167 99.4205 66.3167 99.9455 65.1C100.471 63.8833 101.183 62.825 102.083 61.925C102.983 61.025 104.041 60.3125 105.258 59.7875C106.475 59.2625 107.775 59 109.158 59C110.541 59 111.841 59.2625 113.058 59.7875C114.275 60.3125 115.333 61.025 116.233 61.925C117.133 62.825 117.846 63.8833 118.371 65.1C118.896 66.3167 119.158 67.6167 119.158 69C119.158 70.3833 118.896 71.6833 118.371 72.9C117.846 74.1167 117.133 75.175 116.233 76.075C115.333 76.975 114.275 77.6875 113.058 78.2125C111.841 78.7375 110.541 79 109.158 79Z" fill="white"/>
</g>
<circle cx="280" cy="69" r="35" fill="#EF6984"/>
<path d="M270.945 74.705C270.695 74.705 270.57 74.58 270.57 74.33V65.675C270.57 65.425 270.695 65.3 270.945 65.3H273.705C273.955 65.3 274.08 65.425 274.08 65.675V74.33C274.08 74.58 273.955 74.705 273.705 74.705H270.945ZM268.005 71.75C267.755 71.75 267.63 71.625 267.63 71.375V68.63C267.63 68.38 267.755 68.255 268.005 68.255H276.645C276.895 68.255 277.02 68.38 277.02 68.63V71.375C277.02 71.625 276.895 71.75 276.645 71.75H268.005ZM285.619 80C285.369 80 285.244 79.875 285.244 79.625V63.92L283.234 63.995C282.984 63.995 282.859 63.87 282.859 63.62V60.38C282.859 60.13 282.984 60.005 283.234 60.005H289.864C290.114 60.005 290.239 60.13 290.239 60.38V79.625C290.239 79.875 290.114 80 289.864 80H285.619Z" fill="white"/>
<rect x="0.5" y="0.5" width="559" height="865" stroke="black"/>
<defs>
<clipPath id="clip0_1_880">
<rect x="89.158" y="49" width="40" height="40" rx="20" fill="white"/>
</clipPath>
</defs>
</svg>
